<svg width="173" height="32" viewBox="0 0 173 32" fill="none" xmlns="http://www.w3.org/2000/svg">
<path d="M14.5979 5.8541C15.1966 4.01148 17.8034 4.01148 18.4021 5.8541L19.6432 9.67376C19.9109 10.4978 20.6789 11.0557 21.5453 11.0557H25.5615C27.499 11.0557 28.3045 13.535 26.7371 14.6738L23.4879 17.0344C22.7869 17.5437 22.4936 18.4465 22.7614 19.2705L24.0024 23.0902C24.6012 24.9328 22.4922 26.465 20.9248 25.3262L17.6756 22.9656C16.9746 22.4563 16.0254 22.4563 15.3244 22.9656L12.0752 25.3262C10.5078 26.465 8.39885 24.9328 8.99755 23.0902L10.2386 19.2705C10.5064 18.4465 10.2131 17.5437 9.51209 17.0344L6.26289 14.6738C4.69546 13.535 5.50102 11.0557 7.43846 11.0557H11.4547C12.3211 11.0557 13.0891 10.4978 13.3568 9.67376L14.5979 5.8541Z" fill="#E1C025"/>
<path d="M49.5979 5.8541C50.1966 4.01148 52.8034 4.01148 53.4021 5.8541L54.6432 9.67376C54.9109 10.4978 55.6789 11.0557 56.5453 11.0557H60.5615C62.499 11.0557 63.3045 13.535 61.7371 14.6738L58.4879 17.0344C57.7869 17.5437 57.4936 18.4465 57.7614 19.2705L59.0024 23.0902C59.6012 24.9328 57.4922 26.465 55.9248 25.3262L52.6756 22.9656C51.9746 22.4563 51.0254 22.4563 50.3244 22.9656L47.0752 25.3262C45.5078 26.465 43.3988 24.9328 43.9976 23.0902L45.2386 19.2705C45.5064 18.4465 45.2131 17.5437 44.5121 17.0344L41.2629 14.6738C39.6955 13.535 40.501 11.0557 42.4385 11.0557H46.4547C47.3211 11.0557 48.0891 10.4978 48.3568 9.67376L49.5979 5.8541Z" fill="#E1C025"/>
<path d="M84.5979 5.8541C85.1966 4.01148 87.8034 4.01148 88.4021 5.8541L89.6432 9.67376C89.9109 10.4978 90.6789 11.0557 91.5453 11.0557H95.5615C97.499 11.0557 98.3045 13.535 96.7371 14.6738L93.4879 17.0344C92.7869 17.5437 92.4936 18.4465 92.7614 19.2705L94.0024 23.0902C94.6012 24.9328 92.4922 26.465 90.9248 25.3262L87.6756 22.9656C86.9746 22.4563 86.0254 22.4563 85.3244 22.9656L82.0752 25.3262C80.5078 26.465 78.3988 24.9328 78.9976 23.0902L80.2386 19.2705C80.5064 18.4465 80.2131 17.5437 79.5121 17.0344L76.2629 14.6738C74.6955 13.535 75.501 11.0557 77.4385 11.0557H81.4547C82.3211 11.0557 83.0891 10.4978 83.3568 9.67376L84.5979 5.8541Z" fill="#E1C025"/>
<path d="M119.598 5.8541C120.197 4.01148 122.803 4.01148 123.402 5.8541L124.643 9.67376C124.911 10.4978 125.679 11.0557 126.545 11.0557H130.562C132.499 11.0557 133.305 13.535 131.737 14.6738L128.488 17.0344C127.787 17.5437 127.494 18.4465 127.761 19.2705L129.002 23.0902C129.601 24.9328 127.492 26.465 125.925 25.3262L122.676 22.9656C121.975 22.4563 121.025 22.4563 120.324 22.9656L117.075 25.3262C115.508 26.465 113.399 24.9328 113.998 23.0902L115.239 19.2705C115.506 18.4465 115.213 17.5437 114.512 17.0344L111.263 14.6738C109.695 13.535 110.501 11.0557 112.438 11.0557H116.455C117.321 11.0557 118.089 10.4978 118.357 9.67376L119.598 5.8541Z" fill="#E1C025"/>
<path d="M154.598 5.8541C155.197 4.01148 157.803 4.01148 158.402 5.8541L159.643 9.67376C159.911 10.4978 160.679 11.0557 161.545 11.0557H165.562C167.499 11.0557 168.305 13.535 166.737 14.6738L163.488 17.0344C162.787 17.5437 162.494 18.4465 162.761 19.2705L164.002 23.0902C164.601 24.9328 162.492 26.465 160.925 25.3262L157.676 22.9656C156.975 22.4563 156.025 22.4563 155.324 22.9656L152.075 25.3262C150.508 26.465 148.399 24.9328 148.998 23.0902L150.239 19.2705C150.506 18.4465 150.213 17.5437 149.512 17.0344L146.263 14.6738C144.695 13.535 145.501 11.0557 147.438 11.0557H151.455C152.321 11.0557 153.089 10.4978 153.357 9.67376L154.598 5.8541Z" fill="#E1C025"/>
</svg>
